<svg xmlns="http://www.w3.org/2000/svg" viewBox="0 0 1240 420"
     width="1240" height="420" role="img"
     aria-label="DFK Labs, iOS Engineering Unit. Native Intelligence. We build iOS apps and tools that replace friction with flow.">
  <title>DFK Labs — Native Intelligence</title>
  <style>
  .rise,.pop,.wipe,.grow,.draw{animation-fill-mode:both}
  .rise{opacity:0;animation:rise .62s cubic-bezier(.16,1,.3,1) forwards}
  .pop{opacity:0;transform-box:fill-box;transform-origin:center;
       animation:pop .5s cubic-bezier(.34,1.56,.64,1) forwards}
  .wipe{transform-box:fill-box;transform-origin:left center;
        animation:wipe .9s cubic-bezier(.16,1,.3,1) forwards}
  .grow{transform-box:fill-box;transform-origin:bottom center;
        animation:grow .55s cubic-bezier(.16,1,.3,1) forwards}
  .draw{animation:draw 1.8s cubic-bezier(.16,1,.3,1) forwards}
  .beat{transform-box:fill-box;transform-origin:center;
        animation:beat 2.4s ease-in-out infinite}
  .halo{transform-box:fill-box;transform-origin:center;
        animation:halo 2.4s ease-out infinite}
  .sheen{animation:sheen 9s cubic-bezier(.5,0,.2,1) 1.6s infinite}
  @keyframes rise{from{opacity:0;transform:translateY(9px)}
                  to{opacity:1;transform:none}}
  @keyframes pop{0%{opacity:0;transform:scale(.82)}
                 62%{opacity:1;transform:scale(1.05)}
                 100%{opacity:1;transform:scale(1)}}
  @keyframes wipe{from{transform:scaleX(0)}to{transform:scaleX(1)}}
  @keyframes grow{from{transform:scaleY(0)}to{transform:scaleY(1)}}
  @keyframes draw{to{stroke-dashoffset:0}}
  @keyframes beat{0%,100%{opacity:1}50%{opacity:.28}}
  @keyframes halo{0%{transform:scale(1);opacity:.55}
                  70%,100%{transform:scale(2.7);opacity:0}}
  @keyframes sheen{0%{transform:translateX(-38%)}
                   34%,100%{transform:translateX(150%)}}
  @media (prefers-reduced-motion:reduce){
    *{animation:none!important;opacity:1!important;transform:none!important;
      stroke-dashoffset:0!important}
  }

  .drift0{animation:drift0 26s ease-in-out infinite alternate}
  @keyframes drift0{to{transform:translate(18px,-9px)}}
  .drift1{animation:drift1 34s ease-in-out infinite alternate}
  @keyframes drift1{to{transform:translate(-14px,7px)}}
  .drift2{animation:drift2 44s ease-in-out infinite alternate}
  @keyframes drift2{to{transform:translate(9px,-5px)}}</style>
  <rect width="1240" height="420" fill="#050505"/><g opacity="0.1" class="drift0"><circle cx="0" cy="64" r="1.6" fill="#60a5fa"/><circle cx="173" cy="161" r="1.6" fill="#60a5fa"/><circle cx="346" cy="258" r="1.6" fill="#60a5fa"/><circle cx="519" cy="355" r="1.6" fill="#60a5fa"/><circle cx="692" cy="152" r="1.6" fill="#60a5fa"/><circle cx="865" cy="249" r="1.6" fill="#60a5fa"/><circle cx="1038" cy="346" r="1.6" fill="#60a5fa"/><circle cx="1211" cy="143" r="1.6" fill="#60a5fa"/><circle cx="144" cy="240" r="1.6" fill="#60a5fa"/><circle cx="317" cy="337" r="1.6" fill="#60a5fa"/><circle cx="490" cy="134" r="1.6" fill="#60a5fa"/><circle cx="663" cy="231" r="1.6" fill="#60a5fa"/><circle cx="836" cy="328" r="1.6" fill="#60a5fa"/><circle cx="1009" cy="125" r="1.6" fill="#60a5fa"/><circle cx="1182" cy="222" r="1.6" fill="#60a5fa"/><circle cx="115" cy="319" r="1.6" fill="#60a5fa"/><circle cx="288" cy="116" r="1.6" fill="#60a5fa"/><circle cx="461" cy="213" r="1.6" fill="#60a5fa"/><circle cx="634" cy="310" r="1.6" fill="#60a5fa"/><circle cx="807" cy="107" r="1.6" fill="#60a5fa"/><circle cx="980" cy="204" r="1.6" fill="#60a5fa"/><circle cx="1153" cy="301" r="1.6" fill="#60a5fa"/><circle cx="86" cy="98" r="1.6" fill="#60a5fa"/><circle cx="259" cy="195" r="1.6" fill="#60a5fa"/><circle cx="432" cy="292" r="1.6" fill="#60a5fa"/><circle cx="605" cy="89" r="1.6" fill="#60a5fa"/><circle cx="778" cy="186" r="1.6" fill="#60a5fa"/><circle cx="951" cy="283" r="1.6" fill="#60a5fa"/><circle cx="1124" cy="80" r="1.6" fill="#60a5fa"/><circle cx="57" cy="177" r="1.6" fill="#60a5fa"/><circle cx="230" cy="274" r="1.6" fill="#60a5fa"/><circle cx="403" cy="71" r="1.6" fill="#60a5fa"/><circle cx="576" cy="168" r="1.6" fill="#60a5fa"/><circle cx="749" cy="265" r="1.6" fill="#60a5fa"/><circle cx="922" cy="362" r="1.6" fill="#60a5fa"/><circle cx="1095" cy="159" r="1.6" fill="#60a5fa"/><circle cx="28" cy="256" r="1.6" fill="#60a5fa"/><circle cx="201" cy="353" r="1.6" fill="#60a5fa"/><circle cx="374" cy="150" r="1.6" fill="#60a5fa"/><circle cx="547" cy="247" r="1.6" fill="#60a5fa"/><circle cx="720" cy="344" r="1.6" fill="#60a5fa"/><circle cx="893" cy="141" r="1.6" fill="#60a5fa"/><circle cx="1066" cy="238" r="1.6" fill="#60a5fa"/><circle cx="1239" cy="335" r="1.6" fill="#60a5fa"/><circle cx="172" cy="132" r="1.6" fill="#60a5fa"/><circle cx="345" cy="229" r="1.6" fill="#60a5fa"/></g><g opacity="0.07" class="drift1"><circle cx="61" cy="101" r="1.1" fill="#60a5fa"/><circle cx="234" cy="198" r="1.1" fill="#60a5fa"/><circle cx="407" cy="295" r="1.1" fill="#60a5fa"/><circle cx="580" cy="92" r="1.1" fill="#60a5fa"/><circle cx="753" cy="189" r="1.1" fill="#60a5fa"/><circle cx="926" cy="286" r="1.1" fill="#60a5fa"/><circle cx="1099" cy="83" r="1.1" fill="#60a5fa"/><circle cx="32" cy="180" r="1.1" fill="#60a5fa"/><circle cx="205" cy="277" r="1.1" fill="#60a5fa"/><circle cx="378" cy="74" r="1.1" fill="#60a5fa"/><circle cx="551" cy="171" r="1.1" fill="#60a5fa"/><circle cx="724" cy="268" r="1.1" fill="#60a5fa"/><circle cx="897" cy="65" r="1.1" fill="#60a5fa"/><circle cx="1070" cy="162" r="1.1" fill="#60a5fa"/><circle cx="3" cy="259" r="1.1" fill="#60a5fa"/><circle cx="176" cy="356" r="1.1" fill="#60a5fa"/><circle cx="349" cy="153" r="1.1" fill="#60a5fa"/><circle cx="522" cy="250" r="1.1" fill="#60a5fa"/><circle cx="695" cy="347" r="1.1" fill="#60a5fa"/><circle cx="868" cy="144" r="1.1" fill="#60a5fa"/><circle cx="1041" cy="241" r="1.1" fill="#60a5fa"/><circle cx="1214" cy="338" r="1.1" fill="#60a5fa"/><circle cx="147" cy="135" r="1.1" fill="#60a5fa"/><circle cx="320" cy="232" r="1.1" fill="#60a5fa"/><circle cx="493" cy="329" r="1.1" fill="#60a5fa"/><circle cx="666" cy="126" r="1.1" fill="#60a5fa"/><circle cx="839" cy="223" r="1.1" fill="#60a5fa"/><circle cx="1012" cy="320" r="1.1" fill="#60a5fa"/><circle cx="1185" cy="117" r="1.1" fill="#60a5fa"/><circle cx="118" cy="214" r="1.1" fill="#60a5fa"/><circle cx="291" cy="311" r="1.1" fill="#60a5fa"/><circle cx="464" cy="108" r="1.1" fill="#60a5fa"/><circle cx="637" cy="205" r="1.1" fill="#60a5fa"/><circle cx="810" cy="302" r="1.1" fill="#60a5fa"/><circle cx="983" cy="99" r="1.1" fill="#60a5fa"/><circle cx="1156" cy="196" r="1.1" fill="#60a5fa"/><circle cx="89" cy="293" r="1.1" fill="#60a5fa"/><circle cx="262" cy="90" r="1.1" fill="#60a5fa"/><circle cx="435" cy="187" r="1.1" fill="#60a5fa"/><circle cx="608" cy="284" r="1.1" fill="#60a5fa"/><circle cx="781" cy="81" r="1.1" fill="#60a5fa"/><circle cx="954" cy="178" r="1.1" fill="#60a5fa"/><circle cx="1127" cy="275" r="1.1" fill="#60a5fa"/><circle cx="60" cy="72" r="1.1" fill="#60a5fa"/><circle cx="233" cy="169" r="1.1" fill="#60a5fa"/><circle cx="406" cy="266" r="1.1" fill="#60a5fa"/><circle cx="579" cy="363" r="1.1" fill="#60a5fa"/><circle cx="752" cy="160" r="1.1" fill="#60a5fa"/><circle cx="925" cy="257" r="1.1" fill="#60a5fa"/><circle cx="1098" cy="354" r="1.1" fill="#60a5fa"/><circle cx="31" cy="151" r="1.1" fill="#60a5fa"/><circle cx="204" cy="248" r="1.1" fill="#60a5fa"/><circle cx="377" cy="345" r="1.1" fill="#60a5fa"/><circle cx="550" cy="142" r="1.1" fill="#60a5fa"/><circle cx="723" cy="239" r="1.1" fill="#60a5fa"/><circle cx="896" cy="336" r="1.1" fill="#60a5fa"/><circle cx="1069" cy="133" r="1.1" fill="#60a5fa"/><circle cx="2" cy="230" r="1.1" fill="#60a5fa"/></g><g opacity="0.05" class="drift2"><circle cx="122" cy="138" r="0.8" fill="#60a5fa"/><circle cx="295" cy="235" r="0.8" fill="#60a5fa"/><circle cx="468" cy="332" r="0.8" fill="#60a5fa"/><circle cx="641" cy="129" r="0.8" fill="#60a5fa"/><circle cx="814" cy="226" r="0.8" fill="#60a5fa"/><circle cx="987" cy="323" r="0.8" fill="#60a5fa"/><circle cx="1160" cy="120" r="0.8" fill="#60a5fa"/><circle cx="93" cy="217" r="0.8" fill="#60a5fa"/><circle cx="266" cy="314" r="0.8" fill="#60a5fa"/><circle cx="439" cy="111" r="0.8" fill="#60a5fa"/><circle cx="612" cy="208" r="0.8" fill="#60a5fa"/><circle cx="785" cy="305" r="0.8" fill="#60a5fa"/><circle cx="958" cy="102" r="0.8" fill="#60a5fa"/><circle cx="1131" cy="199" r="0.8" fill="#60a5fa"/><circle cx="64" cy="296" r="0.8" fill="#60a5fa"/><circle cx="237" cy="93" r="0.8" fill="#60a5fa"/><circle cx="410" cy="190" r="0.8" fill="#60a5fa"/><circle cx="583" cy="287" r="0.8" fill="#60a5fa"/><circle cx="756" cy="84" r="0.8" fill="#60a5fa"/><circle cx="929" cy="181" r="0.8" fill="#60a5fa"/><circle cx="1102" cy="278" r="0.8" fill="#60a5fa"/><circle cx="35" cy="75" r="0.8" fill="#60a5fa"/><circle cx="208" cy="172" r="0.8" fill="#60a5fa"/><circle cx="381" cy="269" r="0.8" fill="#60a5fa"/><circle cx="554" cy="66" r="0.8" fill="#60a5fa"/><circle cx="727" cy="163" r="0.8" fill="#60a5fa"/><circle cx="900" cy="260" r="0.8" fill="#60a5fa"/><circle cx="1073" cy="357" r="0.8" fill="#60a5fa"/><circle cx="6" cy="154" r="0.8" fill="#60a5fa"/><circle cx="179" cy="251" r="0.8" fill="#60a5fa"/><circle cx="352" cy="348" r="0.8" fill="#60a5fa"/><circle cx="525" cy="145" r="0.8" fill="#60a5fa"/><circle cx="698" cy="242" r="0.8" fill="#60a5fa"/><circle cx="871" cy="339" r="0.8" fill="#60a5fa"/><circle cx="1044" cy="136" r="0.8" fill="#60a5fa"/><circle cx="1217" cy="233" r="0.8" fill="#60a5fa"/><circle cx="150" cy="330" r="0.8" fill="#60a5fa"/><circle cx="323" cy="127" r="0.8" fill="#60a5fa"/><circle cx="496" cy="224" r="0.8" fill="#60a5fa"/><circle cx="669" cy="321" r="0.8" fill="#60a5fa"/><circle cx="842" cy="118" r="0.8" fill="#60a5fa"/><circle cx="1015" cy="215" r="0.8" fill="#60a5fa"/><circle cx="1188" cy="312" r="0.8" fill="#60a5fa"/><circle cx="121" cy="109" r="0.8" fill="#60a5fa"/><circle cx="294" cy="206" r="0.8" fill="#60a5fa"/><circle cx="467" cy="303" r="0.8" fill="#60a5fa"/><circle cx="640" cy="100" r="0.8" fill="#60a5fa"/><circle cx="813" cy="197" r="0.8" fill="#60a5fa"/><circle cx="986" cy="294" r="0.8" fill="#60a5fa"/><circle cx="1159" cy="91" r="0.8" fill="#60a5fa"/><circle cx="92" cy="188" r="0.8" fill="#60a5fa"/><circle cx="265" cy="285" r="0.8" fill="#60a5fa"/><circle cx="438" cy="82" r="0.8" fill="#60a5fa"/><circle cx="611" cy="179" r="0.8" fill="#60a5fa"/><circle cx="784" cy="276" r="0.8" fill="#60a5fa"/><circle cx="957" cy="73" r="0.8" fill="#60a5fa"/><circle cx="1130" cy="170" r="0.8" fill="#60a5fa"/><circle cx="63" cy="267" r="0.8" fill="#60a5fa"/><circle cx="236" cy="64" r="0.8" fill="#60a5fa"/><circle cx="409" cy="161" r="0.8" fill="#60a5fa"/><circle cx="582" cy="258" r="0.8" fill="#60a5fa"/><circle cx="755" cy="355" r="0.8" fill="#60a5fa"/><circle cx="928" cy="152" r="0.8" fill="#60a5fa"/><circle cx="1101" cy="249" r="0.8" fill="#60a5fa"/><circle cx="34" cy="346" r="0.8" fill="#60a5fa"/><circle cx="207" cy="143" r="0.8" fill="#60a5fa"/><circle cx="380" cy="240" r="0.8" fill="#60a5fa"/><circle cx="553" cy="337" r="0.8" fill="#60a5fa"/><circle cx="726" cy="134" r="0.8" fill="#60a5fa"/><circle cx="899" cy="231" r="0.8" fill="#60a5fa"/></g><line x1="0" y1="60" x2="180" y2="374" stroke="#2563eb" stroke-opacity="0.05"/><line x1="211" y1="60" x2="391" y2="374" stroke="#2563eb" stroke-opacity="0.05"/><line x1="422" y1="60" x2="602" y2="374" stroke="#2563eb" stroke-opacity="0.05"/><line x1="633" y1="60" x2="813" y2="374" stroke="#2563eb" stroke-opacity="0.05"/><line x1="844" y1="60" x2="1024" y2="374" stroke="#2563eb" stroke-opacity="0.05"/><line x1="1055" y1="60" x2="1235" y2="374" stroke="#2563eb" stroke-opacity="0.05"/><line x1="26" y1="60" x2="206" y2="374" stroke="#2563eb" stroke-opacity="0.05"/><rect width="1240" height="60" fill="rgba(5,5,5,0.92)"/><line x1="0" y1="60" x2="1240" y2="60" stroke="rgba(255,255,255,0.05)" stroke-width="1"/><g class="rise" style="animation-delay:0.1s"><rect x="35.0" y="18.0" width="54.0" height="30.0" fill="#2563eb"/><rect x="32" y="15" width="54.0" height="30.0" fill="#050505" stroke="#ffffff" stroke-width="2.0"/><text x="59.0" y="36.599999999999994" font-family="'JetBrains Mono',ui-monospace,SFMono-Regular,Menlo,Consolas,monospace" font-size="17.0" fill="#ffffff" font-weight="800" letter-spacing="-1" text-anchor="middle">DFK</text></g><text x="102" y="36" font-family="'JetBrains Mono',ui-monospace,SFMono-Regular,Menlo,Consolas,monospace" font-size="9.5" fill="#6b7280" letter-spacing="2.6" class="rise" style="animation-delay:0.22s">iOS ENGINEERING UNIT</text><text x="770" y="36" font-family="'JetBrains Mono',ui-monospace,SFMono-Regular,Menlo,Consolas,monospace" font-size="9.5" fill="#6b7280" letter-spacing="1.6" text-anchor="middle" class="rise" style="animation-delay:0.3s">iOS</text><text x="832" y="36" font-family="'JetBrains Mono',ui-monospace,SFMono-Regular,Menlo,Consolas,monospace" font-size="9.5" fill="#6b7280" letter-spacing="1.6" text-anchor="middle" class="rise" style="animation-delay:0.35s">WEB</text><text x="894" y="36" font-family="'JetBrains Mono',ui-monospace,SFMono-Regular,Menlo,Consolas,monospace" font-size="9.5" fill="#6b7280" letter-spacing="1.6" text-anchor="middle" class="rise" style="animation-delay:0.4s">TOOLS</text><text x="956" y="36" font-family="'JetBrains Mono',ui-monospace,SFMono-Regular,Menlo,Consolas,monospace" font-size="9.5" fill="#6b7280" letter-spacing="1.6" text-anchor="middle" class="rise" style="animation-delay:0.45s">PROJECTS</text><g class="beat" style="animation-delay:1.4s"><text x="1208" y="36" font-family="'JetBrains Mono',ui-monospace,SFMono-Regular,Menlo,Consolas,monospace" font-size="9.5" fill="#60a5fa" letter-spacing="1.6" text-anchor="end">SYSTEM: ACTIVE</text></g><g class="rise" style="animation-delay:0.45s"><rect x="536.0" y="118" width="168" height="28" fill="rgba(255,255,255,0.05)" stroke="rgba(255,255,255,0.1)"/><text x="620.0" y="136" font-family="'JetBrains Mono',ui-monospace,SFMono-Regular,Menlo,Consolas,monospace" font-size="11" fill="#60a5fa" letter-spacing="1.4" text-anchor="middle">/// AI-DRIVEN FLOW</text></g><text x="620.0" y="224" font-family="'Inter',system-ui,-apple-system,'Segoe UI',Helvetica,Arial,sans-serif" font-size="74" fill="#ffffff" font-weight="900" letter-spacing="-3" text-anchor="middle" class="rise" style="animation-delay:0.6s">NATIVE</text><text x="620.0" y="294" font-family="'Inter',system-ui,-apple-system,'Segoe UI',Helvetica,Arial,sans-serif" font-size="74" fill="#ffffff" font-weight="900" letter-spacing="-3" text-anchor="middle" class="rise" style="animation-delay:0.73s">INTELLIGENCE.</text><text x="620.0" y="336" font-family="'Inter',system-ui,-apple-system,'Segoe UI',Helvetica,Arial,sans-serif" font-size="17" fill="#6b7280" text-anchor="middle" class="rise" style="animation-delay:0.92s">We build iOS apps and tools that replace friction with flow.</text><line x1="0" y1="374" x2="1240" y2="374" stroke="rgba(255,255,255,0.05)" stroke-width="1"/><text x="32" y="400" font-family="'JetBrains Mono',ui-monospace,SFMono-Regular,Menlo,Consolas,monospace" font-size="9.5" fill="#6b7280" letter-spacing="2" class="rise" style="animation-delay:1.1s">SEVEN SURFACES · ONE FRAME</text><text x="1208" y="400" font-family="'JetBrains Mono',ui-monospace,SFMono-Regular,Menlo,Consolas,monospace" font-size="9.5" fill="#6b7280" letter-spacing="2" text-anchor="end" class="rise" style="animation-delay:1.2s">ENGINEERED IN SILENCE.</text>
</svg>
